<svg width="92" height="91" viewBox="0 0 92 91" fill="none" xmlns="http://www.w3.org/2000/svg">
<path d="M4.88281 90.8242C2.67367 90.8242 0.882814 89.0334 0.882814 86.8242V52.0794C0.882814 49.8703 2.67368 48.0794 4.88281 48.0794H39.6276C41.8368 48.0794 43.6276 49.8703 43.6276 52.0794V86.8242C43.6276 89.0334 41.8368 90.8242 39.6276 90.8242H4.88281Z" fill="white"/>
<path d="M52.6152 90.824C50.4061 90.824 48.6152 89.0331 48.6152 86.824V52.0791C48.6152 49.87 50.4061 48.0792 52.6152 48.0792H87.3601C89.5692 48.0792 91.3601 49.87 91.3601 52.0792V86.824C91.3601 89.0331 89.5692 90.824 87.3601 90.824H52.6152Z" fill="white"/>
<path d="M4.88281 43.8045C2.67367 43.8045 0.882812 42.0136 0.882812 39.8045V5.05962C0.882812 2.85048 2.67367 1.05963 4.88281 1.05963H39.6276C41.8368 1.05963 43.6276 2.85049 43.6276 5.05963V39.8045C43.6276 42.0136 41.8368 43.8045 39.6276 43.8045H4.88281Z" fill="white"/>
<path d="M69.4724 43.6472C57.6688 43.6472 48.1 34.0784 48.1 22.2748C48.1 10.4711 57.6688 0.902344 69.4724 0.902344C81.2761 0.902344 90.8448 10.4711 90.8448 22.2748C90.8448 34.0784 81.2761 43.6472 69.4724 43.6472Z" fill="#64FF90"/>
</svg>
