<svg width="167" height="38" viewBox="0 0 167 38" fill="none" xmlns="http://www.w3.org/2000/svg">
<path d="M20.2108 8.76923C20.9017 8.76923 21.4234 9.03479 21.8132 9.41336C22.4422 10.0236 22.7083 10.922 23.1001 11.6659C25.1088 15.4858 28.2799 18.6964 32.2341 20.9136L33.1292 21.3976C33.9397 21.8477 34.645 22.3732 34.6471 23.3808C34.6491 24.7595 33.3354 25.2379 32.2341 25.8538C28.28 28.071 25.1089 31.2816 23.1001 35.1014C22.7083 35.8472 22.4402 36.7456 21.8132 37.3559C21.4255 37.7344 20.9017 38 20.2108 38C19.5199 38 18.9961 37.7344 18.6084 37.3559C18.2454 37.0037 18.0062 36.5611 17.7937 36.109L17.4844 35.431C17.4327 35.3207 17.3784 35.2114 17.3215 35.1033C15.3128 31.2834 12.1417 28.0728 8.18743 25.8557L7.52542 25.4959C6.63244 25.0062 5.77245 24.4487 5.77451 23.3808C5.77864 22.0059 7.08821 21.5313 8.18743 20.9154C12.1417 18.6983 15.3128 15.4877 17.3215 11.6678C17.7133 10.922 17.9814 10.0236 18.6084 9.41336C18.9961 9.03668 19.5199 8.76923 20.2108 8.76923Z" fill="#82FF96"/>
<path d="M5.77451 5.84615C6.05086 5.84615 6.25957 5.95238 6.41548 6.10381C6.66708 6.3479 6.7735 6.70726 6.93024 7.00484C7.7337 8.5328 9.00215 9.81702 10.5838 10.7039L10.9419 10.8975C11.2661 11.0776 11.5482 11.2877 11.549 11.6908C11.5498 12.2423 11.0244 12.4336 10.5838 12.68C9.00218 13.5669 7.73374 14.8511 6.93024 16.379C6.7735 16.6774 6.66626 17.0367 6.41548 17.2808C6.26039 17.4322 6.05086 17.5385 5.77451 17.5385C5.49816 17.5385 5.28862 17.4322 5.13354 17.2808C4.98835 17.1399 4.89266 16.9629 4.80769 16.7821L4.68395 16.5109C4.66328 16.4667 4.64155 16.423 4.61878 16.3798C3.81531 14.8518 2.54686 13.5676 0.965169 12.6807L0.700367 12.5368C0.343172 12.341 -0.000823449 12.118 1.48071e-06 11.6908C0.00165134 11.1408 0.525481 10.951 0.965169 10.7046C2.54686 9.81777 3.81531 8.53355 4.61878 7.00559C4.77552 6.70726 4.88276 6.3479 5.13354 6.10381C5.28862 5.95313 5.49816 5.84615 5.77451 5.84615Z" fill="#82FF96"/>
<path d="M12.9926 0C13.1999 0 13.3564 0.0796689 13.4734 0.193239C13.6621 0.376308 13.7419 0.645827 13.8594 0.869012C14.462 2.01498 15.4134 2.97815 16.5996 3.6433L16.8682 3.78851C17.1113 3.92355 17.3229 4.0812 17.3235 4.38349C17.3241 4.79709 16.93 4.9406 16.5996 5.12537C15.4134 5.79054 14.4621 6.7537 13.8594 7.89965C13.7419 8.1234 13.6615 8.39292 13.4734 8.57599C13.3571 8.68956 13.1999 8.76923 12.9926 8.76923C12.7854 8.76923 12.6282 8.68956 12.5119 8.57599C12.403 8.47033 12.3313 8.33755 12.2675 8.20194L12.1747 7.99853C12.1592 7.96544 12.1429 7.93266 12.1258 7.90022C11.5232 6.75425 10.5719 5.79108 9.38564 5.12593L9.18704 5.01801C8.91914 4.8711 8.66115 4.70386 8.66177 4.38349C8.663 3.97101 9.05587 3.82863 9.38564 3.64386C10.5719 2.97872 11.5232 2.01555 12.1258 0.869578C12.2434 0.645827 12.3238 0.376308 12.5119 0.193239C12.6282 0.0802339 12.7854 0 12.9926 0Z" fill="#82FF96"/>
<path d="M53.4439 2.92045C57.7325 2.92045 60.9411 3.84794 63.07 5.70292C65.2142 7.5579 66.2864 10.1947 66.2864 13.6134C66.2864 15.1465 66.0627 16.6182 65.6153 18.0286C65.1834 19.439 64.4661 20.6961 63.4634 21.7999C62.4761 22.9037 61.1571 23.7775 59.5065 24.4214C57.8713 25.0653 55.8504 25.3872 53.4439 25.3872H50.8754V36.5401H41.7353V2.92045H53.4439ZM53.2357 10.2561H50.8754V17.9826H52.6803C53.4671 17.9826 54.1998 17.8523 54.8786 17.5917C55.5573 17.3157 56.0973 16.8788 56.4983 16.2809C56.9149 15.6677 57.1231 14.8552 57.1231 13.8434C57.1231 12.7856 56.8069 11.9271 56.1744 11.2679C55.5419 10.5933 54.5623 10.2561 53.2357 10.2561Z" fill="white"/>
<path d="M80.2395 10.486V36.5401H71.192V10.486H80.2395ZM75.7505 0C77.0463 0 78.1724 0.268283 79.1288 0.804848C80.1007 1.34141 80.5866 2.40688 80.5866 4.00124C80.5866 5.54962 80.1007 6.59975 79.1288 7.15165C78.1724 7.68821 77.0463 7.95649 75.7505 7.95649C74.4238 7.95649 73.29 7.68821 72.349 7.15165C71.4234 6.59975 70.9606 5.54962 70.9606 4.00124C70.9606 2.40688 71.4234 1.34141 72.349 0.804848C73.29 0.268283 74.4238 0 75.7505 0Z" fill="white"/>
<path d="M92.1102 23.2486L84.1039 10.486H94.3778L98.3578 17.7986L102.43 10.486H112.728L104.513 23.2486L113.051 36.5401H102.778L98.3578 28.6296L93.9613 36.5401H83.6642L92.1102 23.2486Z" fill="white"/>
<path d="M141.907 10.486V36.5401H135.08L133.947 33.2977H133.414C132.874 34.1715 132.188 34.8844 131.355 35.4363C130.537 35.9729 129.627 36.3638 128.624 36.6091C127.622 36.8697 126.58 37 125.501 37C123.788 37 122.238 36.6704 120.85 36.0112C119.477 35.352 118.381 34.3172 117.564 32.9068C116.762 31.4964 116.36 29.6797 116.36 27.4568V10.486H125.408V24.7203C125.408 26.4067 125.647 27.6944 126.125 28.5836C126.619 29.4574 127.421 29.8943 128.532 29.8943C129.673 29.8943 130.553 29.5877 131.17 28.9745C131.802 28.3613 132.242 27.4568 132.489 26.261C132.736 25.0653 132.859 23.6089 132.859 21.8919V10.486H141.907Z" fill="white"/>
<path d="M163.982 10.0261C164.475 10.0261 164.992 10.0644 165.532 10.1411C166.072 10.2024 166.473 10.2561 166.735 10.3021L165.925 18.7874C165.632 18.7108 165.254 18.6495 164.792 18.6035C164.329 18.5422 163.681 18.5115 162.848 18.5115C162.277 18.5115 161.668 18.5652 161.02 18.6725C160.372 18.7798 159.755 19.0097 159.169 19.3623C158.598 19.6996 158.127 20.2208 157.757 20.926C157.387 21.6159 157.202 22.5511 157.202 23.7315V36.5401H148.154V10.486H154.888L156.299 14.6482H156.739C157.217 13.7897 157.827 13.0155 158.567 12.3257C159.323 11.6205 160.164 11.0609 161.089 10.647C162.03 10.2331 162.994 10.0261 163.982 10.0261Z" fill="white"/>
</svg>
