<svg width="266" height="29" viewBox="0 0 266 29" fill="none" xmlns="http://www.w3.org/2000/svg">
<path d="M2.76471 29C1.2378 29 1.57455e-07 27.7546 1.57455e-07 26.2182V17.9965C1.57455e-07 16.4601 1.2378 15.2147 2.76471 15.2147H10.936C12.4629 15.2147 13.7007 16.4601 13.7007 17.9965V26.2182C13.7007 27.7546 12.4629 29 10.936 29H2.76471Z" fill="white"/>
<path d="M18.064 28.9999C16.5371 28.9999 15.2993 27.7545 15.2993 26.2181V17.9964C15.2993 16.4601 16.5371 15.2146 18.064 15.2146H26.2353C27.7622 15.2146 29 16.4601 29 17.9964V26.2181C29 27.7545 27.7622 28.9999 26.2353 28.9999H18.064Z" fill="white"/>
<path d="M2.76471 13.836C1.2378 13.836 0 12.5906 0 11.0542V2.83249C0 1.29615 1.2378 0.0507059 2.76471 0.0507059H10.936C12.4629 0.0507059 13.7007 1.29615 13.7007 2.83249V11.0542C13.7007 12.5906 12.4629 13.836 10.936 13.836H2.76471Z" fill="white"/>
<path d="M21.9844 13.7853C18.2011 13.7853 15.134 10.6994 15.134 6.89265C15.134 3.08594 18.2011 0 21.9844 0C25.7677 0 28.8347 3.08594 28.8347 6.89265C28.8347 10.6994 25.7677 13.7853 21.9844 13.7853Z" fill="#64FF90"/>
<path d="M43.1002 12.9767C43.0675 12.5577 42.9139 12.231 42.6396 11.9964C42.3693 11.7618 41.9578 11.6445 41.405 11.6445C41.0529 11.6445 40.7642 11.6885 40.539 11.7765C40.3179 11.8603 40.1541 11.9755 40.0476 12.1221C39.9412 12.2687 39.8859 12.4363 39.8818 12.6248C39.8736 12.7798 39.9002 12.9201 39.9616 13.0458C40.0271 13.1673 40.1295 13.2783 40.2687 13.3788C40.4079 13.4752 40.5861 13.5631 40.8031 13.6427C41.0201 13.7223 41.2781 13.7935 41.577 13.8564L42.6089 14.0826C43.305 14.2334 43.9007 14.4324 44.3962 14.6795C44.8916 14.9267 45.297 15.2178 45.6123 15.553C45.9276 15.8839 46.159 16.2567 46.3064 16.6715C46.4579 17.0862 46.5357 17.5386 46.5398 18.0287C46.5357 18.8749 46.3289 19.5913 45.9194 20.1777C45.5099 20.7642 44.9244 21.2104 44.1628 21.5162C43.4053 21.822 42.4942 21.9749 41.4296 21.9749C40.3363 21.9749 39.3822 21.8094 38.5674 21.4785C37.7566 21.1475 37.126 20.6385 36.6756 19.9515C36.2293 19.2603 36.0041 18.3764 36 17.2998H39.243C39.2635 17.6936 39.3597 18.0245 39.5317 18.2926C39.7037 18.5607 39.9452 18.7639 40.2564 18.9022C40.5717 19.0404 40.9464 19.1095 41.3804 19.1095C41.7449 19.1095 42.0499 19.0634 42.2956 18.9713C42.5413 18.8791 42.7276 18.7513 42.8545 18.588C42.9815 18.4246 43.047 18.2382 43.0511 18.0287C43.047 17.8318 42.9835 17.6601 42.8607 17.5135C42.7419 17.3627 42.5454 17.2286 42.271 17.1113C41.9967 16.9898 41.6261 16.8767 41.1593 16.772L39.9063 16.4955C38.7926 16.2484 37.9143 15.8357 37.2714 15.2576C36.6326 14.6753 36.3153 13.8815 36.3194 12.8761C36.3153 12.0592 36.5282 11.345 36.9582 10.7334C37.3922 10.1176 37.9921 9.63794 38.7578 9.29443C39.5276 8.95093 40.41 8.77917 41.405 8.77917C42.4205 8.77917 43.2988 8.95302 44.0399 9.30072C44.7811 9.64841 45.3523 10.1385 45.7536 10.7711C46.159 11.3995 46.3637 12.1346 46.3678 12.9767H43.1002Z" fill="white"/>
<path d="M53.5141 12.1724V14.6858H47.2983V12.1724H53.5141ZM48.5022 9.85996H51.8926V18.7199C51.8926 18.854 51.9151 18.9671 51.9601 19.0592C52.0052 19.1472 52.0748 19.2142 52.169 19.2603C52.2631 19.3022 52.3839 19.3232 52.5313 19.3232C52.6337 19.3232 52.7525 19.3106 52.8876 19.2855C53.0268 19.2603 53.1292 19.2394 53.1947 19.2226L53.686 21.6607C53.5345 21.7068 53.3175 21.7633 53.035 21.8303C52.7566 21.8974 52.4249 21.9414 52.04 21.9623C51.262 22.0042 50.6089 21.9225 50.0807 21.7172C49.5524 21.5078 49.1553 21.1789 48.8891 20.7307C48.6229 20.2825 48.494 19.7211 48.5022 19.0467V9.85996Z" fill="white"/>
<path d="M57.5264 21.9749C56.9244 21.9749 56.3921 21.8743 55.9294 21.6733C55.4708 21.468 55.1105 21.158 54.8484 20.7433C54.5864 20.3285 54.4553 19.8007 54.4553 19.1598C54.4553 18.632 54.5434 18.1816 54.7194 17.8088C54.8955 17.4318 55.1412 17.1239 55.4565 16.8851C55.7718 16.6463 56.1383 16.4641 56.5559 16.3384C56.9777 16.2127 57.4322 16.1311 57.9195 16.0934C58.4477 16.0515 58.8715 16.0012 59.1909 15.9425C59.5143 15.8797 59.7477 15.7938 59.8911 15.6849C60.0344 15.5718 60.106 15.4231 60.106 15.2388V15.2136C60.106 14.9623 60.0119 14.7696 59.8235 14.6355C59.6351 14.5015 59.3936 14.4345 59.0987 14.4345C58.7753 14.4345 58.5111 14.5078 58.3064 14.6544C58.1058 14.7968 57.985 15.0168 57.944 15.3142H54.8239C54.8648 14.7277 55.047 14.1873 55.3705 13.693C55.6981 13.1945 56.1751 12.7965 56.8016 12.4991C57.4281 12.1975 58.2102 12.0467 59.1479 12.0467C59.8235 12.0467 60.4295 12.1284 60.9659 12.2917C61.5023 12.4509 61.9589 12.675 62.3356 12.9641C62.7123 13.249 62.9989 13.5841 63.1955 13.9695C63.3961 14.3507 63.4964 14.7654 63.4964 15.2136V21.8241H60.3271V20.4668H60.2534C60.0651 20.8271 59.8358 21.1182 59.5655 21.3402C59.2994 21.5622 58.9943 21.7235 58.6504 21.8241C58.3105 21.9246 57.9358 21.9749 57.5264 21.9749ZM58.6319 19.7882C58.8899 19.7882 59.1315 19.7337 59.3567 19.6248C59.586 19.5159 59.7723 19.3588 59.9156 19.1535C60.0589 18.9482 60.1306 18.699 60.1306 18.4057V17.6014C60.0405 17.6391 59.9443 17.6747 59.8419 17.7083C59.7436 17.7418 59.6372 17.7732 59.5225 17.8025C59.412 17.8318 59.2932 17.8591 59.1663 17.8842C59.0435 17.9093 58.9145 17.9324 58.7793 17.9533C58.5173 17.9952 58.3023 18.0643 58.1344 18.1607C57.9706 18.2528 57.8478 18.368 57.7659 18.5063C57.6881 18.6403 57.6492 18.7911 57.6492 18.9587C57.6492 19.2268 57.7413 19.4321 57.9256 19.5745C58.1099 19.7169 58.3453 19.7882 58.6319 19.7882Z" fill="white"/>
<path d="M65.0673 21.8241V8.95512H68.4577V13.8564H68.5068C68.6297 13.5296 68.8098 13.2301 69.0473 12.9578C69.2848 12.6813 69.5796 12.4614 69.9318 12.298C70.2839 12.1305 70.6934 12.0467 71.1602 12.0467C71.7826 12.0467 72.3743 12.2163 72.9352 12.5557C73.5003 12.895 73.9589 13.4291 74.3111 14.158C74.6673 14.8869 74.8454 15.8336 74.8454 16.9982C74.8454 18.1125 74.6755 19.0362 74.3356 19.7693C73.9999 20.5024 73.5495 21.0491 72.9844 21.4093C72.4234 21.7696 71.8072 21.9497 71.1356 21.9497C70.6934 21.9497 70.2983 21.8764 69.9502 21.7298C69.6063 21.579 69.3114 21.3758 69.0658 21.1203C68.8242 20.8606 68.6379 20.5673 68.5068 20.2406H68.4331V21.8241H65.0673ZM68.384 16.9982C68.384 17.4674 68.4434 17.8737 68.5621 18.2172C68.6849 18.5566 68.8569 18.8205 69.078 19.009C69.3032 19.1933 69.5714 19.2855 69.8826 19.2855C70.1938 19.2855 70.458 19.1954 70.675 19.0153C70.8961 18.8309 71.064 18.5691 71.1786 18.2298C71.2974 17.8863 71.3567 17.4758 71.3567 16.9982C71.3567 16.5206 71.2974 16.1122 71.1786 15.7729C71.064 15.4294 70.8961 15.1676 70.675 14.9874C70.458 14.8031 70.1938 14.711 69.8826 14.711C69.5714 14.711 69.3032 14.8031 69.078 14.9874C68.8569 15.1676 68.6849 15.4294 68.5621 15.7729C68.4434 16.1122 68.384 16.5206 68.384 16.9982Z" fill="white"/>
<path d="M79.6547 8.95512V21.8241H76.2642V8.95512H79.6547Z" fill="white"/>
<path d="M85.9027 22C84.8954 22 84.0273 21.8031 83.2984 21.4093C82.5737 21.0114 82.0147 20.4417 81.6216 19.7002C81.2327 18.9545 81.0382 18.0622 81.0382 17.0233C81.0382 16.0263 81.2347 15.155 81.6278 14.4093C82.0209 13.6637 82.5757 13.0835 83.2923 12.6688C84.0089 12.254 84.8544 12.0467 85.829 12.0467C86.5414 12.0467 87.1863 12.1598 87.7637 12.386C88.3411 12.6122 88.8345 12.9411 89.2439 13.3725C89.6534 13.7998 89.9687 14.3193 90.1898 14.9309C90.4109 15.5425 90.5215 16.2316 90.5215 16.9982V17.8025H82.0946V15.8923H87.4013C87.3972 15.6158 87.3276 15.3728 87.1925 15.1634C87.0615 14.9497 86.8833 14.7843 86.6581 14.667C86.437 14.5455 86.1852 14.4847 85.9027 14.4847C85.6283 14.4847 85.3765 14.5455 85.1472 14.667C84.9179 14.7843 84.7336 14.9476 84.5944 15.1571C84.4593 15.3665 84.3876 15.6116 84.3794 15.8923V17.9533C84.3794 18.2633 84.4429 18.5398 84.5698 18.7828C84.6968 19.0257 84.879 19.2163 85.1165 19.3546C85.354 19.4928 85.6406 19.5619 85.9764 19.5619C86.2098 19.5619 86.4227 19.5284 86.6151 19.4614C86.8117 19.3944 86.9796 19.298 87.1188 19.1724C87.258 19.0425 87.3604 18.8875 87.4259 18.7074H90.5215C90.415 19.3776 90.1632 19.9599 89.766 20.4542C89.3688 20.9443 88.8427 21.3256 88.1875 21.5978C87.5364 21.8659 86.7748 22 85.9027 22Z" fill="white"/>
<path d="M100.141 21.8241H95.3015V8.95512H100.092C101.386 8.95512 102.504 9.21275 103.446 9.72801C104.392 10.2391 105.121 10.9764 105.632 11.9399C106.148 12.8992 106.406 14.0491 106.406 15.3896C106.406 16.7301 106.15 17.8821 105.639 18.8456C105.127 19.8049 104.402 20.5422 103.464 21.0575C102.527 21.5685 101.419 21.8241 100.141 21.8241ZM98.7165 18.8582H100.019C100.641 18.8582 101.171 18.7555 101.609 18.5503C102.052 18.345 102.387 17.991 102.617 17.4883C102.85 16.9856 102.967 16.2861 102.967 15.3896C102.967 14.4931 102.848 13.7935 102.611 13.2908C102.377 12.7882 102.033 12.4342 101.579 12.2289C101.128 12.0236 100.576 11.921 99.9204 11.921H98.7165V18.8582Z" fill="white"/>
<path d="M108.036 21.8241V12.1724H111.426V21.8241H108.036ZM109.731 11.167C109.272 11.167 108.879 11.012 108.551 10.702C108.224 10.392 108.06 10.0192 108.06 9.58348C108.06 9.14782 108.224 8.77498 108.551 8.46499C108.879 8.155 109.272 8 109.731 8C110.193 8 110.587 8.155 110.91 8.46499C111.238 8.77498 111.401 9.14782 111.401 9.58348C111.401 10.0192 111.238 10.392 110.91 10.702C110.587 11.012 110.193 11.167 109.731 11.167Z" fill="white"/>
<path d="M118.804 12.1724V14.6858H112.49V12.1724H118.804ZM113.694 21.8241V11.8959C113.694 11.0999 113.833 10.4402 114.112 9.91652C114.39 9.39288 114.783 9.0012 115.291 8.74147C115.799 8.48175 116.396 8.35188 117.084 8.35188C117.514 8.35188 117.932 8.3854 118.337 8.45242C118.747 8.51945 119.05 8.5781 119.246 8.62837L118.755 11.1167C118.632 11.079 118.489 11.0497 118.325 11.0287C118.161 11.0036 118.018 10.991 117.895 10.991C117.576 10.991 117.361 11.0601 117.25 11.1984C117.14 11.3366 117.084 11.5189 117.084 11.7451V21.8241H113.694Z" fill="white"/>
<path d="M125.763 12.1724V14.6858H119.449V12.1724H125.763ZM120.653 21.8241V11.8959C120.653 11.0999 120.792 10.4402 121.071 9.91652C121.349 9.39288 121.742 9.0012 122.25 8.74147C122.758 8.48175 123.355 8.35188 124.043 8.35188C124.473 8.35188 124.891 8.3854 125.296 8.45242C125.706 8.51945 126.009 8.5781 126.205 8.62837L125.714 11.1167C125.591 11.079 125.448 11.0497 125.284 11.0287C125.12 11.0036 124.977 10.991 124.854 10.991C124.535 10.991 124.32 11.0601 124.209 11.1984C124.099 11.3366 124.043 11.5189 124.043 11.7451V21.8241H120.653Z" fill="white"/>
<path d="M133.189 17.6014V12.1724H136.579V21.8241H133.361V19.9892H133.263C133.058 20.605 132.699 21.0868 132.188 21.4345C131.676 21.778 131.068 21.9497 130.363 21.9497C129.704 21.9497 129.127 21.7947 128.631 21.4847C128.14 21.1747 127.757 20.7475 127.483 20.2029C127.213 19.6583 127.075 19.0341 127.071 18.3303V12.1724H130.462V17.6014C130.466 18.079 130.585 18.4539 130.818 18.7262C131.055 18.9985 131.387 19.1347 131.813 19.1347C132.096 19.1347 132.339 19.0739 132.544 18.9524C132.753 18.8268 132.912 18.6508 133.023 18.4246C133.138 18.1942 133.193 17.9198 133.189 17.6014Z" fill="white"/>
<path d="M146.927 15.3142H143.807C143.791 15.1173 143.723 14.9476 143.604 14.8052C143.485 14.6628 143.332 14.5539 143.144 14.4785C142.959 14.3989 142.755 14.3591 142.529 14.3591C142.239 14.3591 141.989 14.4135 141.78 14.5224C141.571 14.6314 141.469 14.7864 141.473 14.9874C141.469 15.1299 141.528 15.2618 141.651 15.3833C141.778 15.5048 142.022 15.599 142.382 15.6661L144.298 16.018C145.265 16.1981 145.983 16.5018 146.454 16.9291C146.929 17.3522 147.169 17.9198 147.173 18.632C147.169 19.319 146.968 19.9159 146.571 20.4228C146.178 20.9255 145.639 21.3151 144.955 21.5916C144.276 21.8639 143.5 22 142.628 22C141.186 22 140.058 21.6984 139.243 21.0952C138.433 20.4919 137.98 19.696 137.886 18.7074H141.252C141.297 19.0132 141.444 19.2499 141.694 19.4174C141.948 19.5808 142.267 19.6625 142.652 19.6625C142.963 19.6625 143.219 19.608 143.42 19.4991C143.625 19.3902 143.729 19.2352 143.733 19.0341C143.729 18.8498 143.639 18.7032 143.463 18.5943C143.291 18.4853 143.021 18.3974 142.652 18.3303L140.982 18.0287C140.019 17.857 139.299 17.5302 138.82 17.0485C138.34 16.5667 138.103 15.9467 138.107 15.1885C138.103 14.5183 138.275 13.9506 138.623 13.4856C138.975 13.0165 139.477 12.6604 140.128 12.4174C140.783 12.1703 141.559 12.0467 142.456 12.0467C143.819 12.0467 144.894 12.3357 145.68 12.9138C146.47 13.4919 146.886 14.292 146.927 15.3142Z" fill="white"/>
<path d="M148.472 21.8241V12.1724H151.862V21.8241H148.472ZM150.167 11.167C149.708 11.167 149.315 11.012 148.988 10.702C148.66 10.392 148.496 10.0192 148.496 9.58348C148.496 9.14782 148.66 8.77498 148.988 8.46499C149.315 8.155 149.708 8 150.167 8C150.63 8 151.023 8.155 151.346 8.46499C151.674 8.77498 151.838 9.14782 151.838 9.58348C151.838 10.0192 151.674 10.392 151.346 10.702C151.023 11.012 150.63 11.167 150.167 11.167Z" fill="white"/>
<path d="M158.135 22C157.111 22 156.235 21.7926 155.506 21.3779C154.777 20.959 154.218 20.3767 153.829 19.6311C153.44 18.8812 153.246 18.012 153.246 17.0233C153.246 16.0347 153.44 15.1676 153.829 14.4219C154.218 13.6721 154.777 13.0898 155.506 12.675C156.235 12.2561 157.111 12.0467 158.135 12.0467C159.158 12.0467 160.035 12.2561 160.764 12.675C161.492 13.0898 162.051 13.6721 162.44 14.4219C162.829 15.1676 163.024 16.0347 163.024 17.0233C163.024 18.012 162.829 18.8812 162.44 19.6311C162.051 20.3767 161.492 20.959 160.764 21.3779C160.035 21.7926 159.158 22 158.135 22ZM158.159 19.4363C158.446 19.4363 158.694 19.3378 158.903 19.1409C159.111 18.944 159.273 18.6634 159.388 18.2989C159.502 17.9345 159.56 17.5009 159.56 16.9982C159.56 16.4913 159.502 16.0577 159.388 15.6975C159.273 15.333 159.111 15.0524 158.903 14.8555C158.694 14.6586 158.446 14.5601 158.159 14.5601C157.856 14.5601 157.596 14.6586 157.379 14.8555C157.162 15.0524 156.996 15.333 156.882 15.6975C156.767 16.0577 156.71 16.4913 156.71 16.9982C156.71 17.5009 156.767 17.9345 156.882 18.2989C156.996 18.6634 157.162 18.944 157.379 19.1409C157.596 19.3378 157.856 19.4363 158.159 19.4363Z" fill="white"/>
<path d="M167.79 16.395V21.8241H164.4V12.1724H167.618V14.0072H167.716C167.921 13.3956 168.281 12.9159 168.797 12.5682C169.317 12.2205 169.923 12.0467 170.615 12.0467C171.283 12.0467 171.862 12.2038 172.354 12.518C172.849 12.8279 173.232 13.2552 173.502 13.7998C173.777 14.3444 173.912 14.9665 173.908 15.6661V21.8241H170.517V16.395C170.521 15.9174 170.402 15.5425 170.161 15.2702C169.923 14.9979 169.592 14.8618 169.166 14.8618C168.887 14.8618 168.644 14.9246 168.435 15.0503C168.23 15.1718 168.073 15.3477 167.962 15.5781C167.851 15.8043 167.794 16.0766 167.79 16.395Z" fill="white"/>
<path d="M187.147 13.2029C187.094 12.9808 187.01 12.7861 186.895 12.6185C186.78 12.4467 186.637 12.3022 186.465 12.1849C186.297 12.0634 186.101 11.9734 185.875 11.9147C185.654 11.8519 185.411 11.8205 185.144 11.8205C184.571 11.8205 184.082 11.9608 183.676 12.2415C183.275 12.5221 182.968 12.9264 182.755 13.4542C182.546 13.982 182.442 14.6188 182.442 15.3645C182.442 16.1185 182.542 16.7636 182.743 17.2998C182.944 17.836 183.242 18.2466 183.64 18.5314C184.037 18.8163 184.53 18.9587 185.12 18.9587C185.64 18.9587 186.072 18.8812 186.416 18.7262C186.764 18.5712 187.024 18.3513 187.196 18.0664C187.368 17.7816 187.454 17.4464 187.454 17.061L188.044 17.1239H185.169V14.6355H190.746V16.4201C190.746 17.5931 190.502 18.5964 190.015 19.43C189.532 20.2594 188.864 20.8962 188.013 21.3402C187.165 21.7801 186.193 22 185.095 22C183.871 22 182.796 21.734 181.871 21.202C180.945 20.67 180.223 19.9117 179.703 18.9273C179.187 17.9428 178.929 16.772 178.929 15.4147C178.929 14.3507 179.086 13.4081 179.402 12.5871C179.721 11.766 180.163 11.0727 180.728 10.5072C181.293 9.93746 181.946 9.50808 182.688 9.21903C183.429 8.92579 184.223 8.77917 185.071 8.77917C185.816 8.77917 186.508 8.88809 187.147 9.10592C187.79 9.31957 188.357 9.62537 188.848 10.0233C189.344 10.4171 189.743 10.8842 190.046 11.4246C190.349 11.965 190.533 12.5577 190.599 13.2029H187.147Z" fill="white"/>
<path d="M196.908 22C195.901 22 195.033 21.8031 194.304 21.4093C193.579 21.0114 193.02 20.4417 192.627 19.7002C192.238 18.9545 192.044 18.0622 192.044 17.0233C192.044 16.0263 192.24 15.155 192.633 14.4093C193.026 13.6637 193.581 13.0835 194.298 12.6688C195.014 12.254 195.86 12.0467 196.834 12.0467C197.547 12.0467 198.192 12.1598 198.769 12.386C199.346 12.6122 199.84 12.9411 200.249 13.3725C200.659 13.7998 200.974 14.3193 201.195 14.9309C201.416 15.5425 201.527 16.2316 201.527 16.9982V17.8025H193.1V15.8923H198.407C198.403 15.6158 198.333 15.3728 198.198 15.1634C198.067 14.9497 197.889 14.7843 197.663 14.667C197.442 14.5455 197.191 14.4847 196.908 14.4847C196.634 14.4847 196.382 14.5455 196.153 14.667C195.923 14.7843 195.739 14.9476 195.6 15.1571C195.465 15.3665 195.393 15.6116 195.385 15.8923V17.9533C195.385 18.2633 195.448 18.5398 195.575 18.7828C195.702 19.0257 195.884 19.2163 196.122 19.3546C196.359 19.4928 196.646 19.5619 196.982 19.5619C197.215 19.5619 197.428 19.5284 197.621 19.4614C197.817 19.3944 197.985 19.298 198.124 19.1724C198.263 19.0425 198.366 18.8875 198.431 18.7074H201.527C201.42 19.3776 201.169 19.9599 200.771 20.4542C200.374 20.9443 199.848 21.3256 199.193 21.5978C198.542 21.8659 197.78 22 196.908 22Z" fill="white"/>
<path d="M206.301 16.395V21.8241H202.91V12.1724H206.129V14.0072H206.227C206.432 13.3956 206.792 12.9159 207.308 12.5682C207.828 12.2205 208.434 12.0467 209.126 12.0467C209.794 12.0467 210.373 12.2038 210.864 12.518C211.36 12.8279 211.743 13.2552 212.013 13.7998C212.287 14.3444 212.422 14.9665 212.418 15.6661V21.8241H209.028V16.395C209.032 15.9174 208.913 15.5425 208.672 15.2702C208.434 14.9979 208.102 14.8618 207.677 14.8618C207.398 14.8618 207.155 14.9246 206.946 15.0503C206.741 15.1718 206.583 15.3477 206.473 15.5781C206.362 15.8043 206.305 16.0766 206.301 16.395Z" fill="white"/>
<path d="M218.613 22C217.605 22 216.737 21.8031 216.008 21.4093C215.284 21.0114 214.725 20.4417 214.331 19.7002C213.942 18.9545 213.748 18.0622 213.748 17.0233C213.748 16.0263 213.945 15.155 214.338 14.4093C214.731 13.6637 215.286 13.0835 216.002 12.6688C216.719 12.254 217.564 12.0467 218.539 12.0467C219.251 12.0467 219.896 12.1598 220.474 12.386C221.051 12.6122 221.544 12.9411 221.954 13.3725C222.363 13.7998 222.679 14.3193 222.9 14.9309C223.121 15.5425 223.231 16.2316 223.231 16.9982V17.8025H214.804V15.8923H220.111C220.107 15.6158 220.037 15.3728 219.902 15.1634C219.771 14.9497 219.593 14.7843 219.368 14.667C219.147 14.5455 218.895 14.4847 218.613 14.4847C218.338 14.4847 218.086 14.5455 217.857 14.667C217.628 14.7843 217.443 14.9476 217.304 15.1571C217.169 15.3665 217.097 15.6116 217.089 15.8923V17.9533C217.089 18.2633 217.153 18.5398 217.28 18.7828C217.407 19.0257 217.589 19.2163 217.826 19.3546C218.064 19.4928 218.35 19.5619 218.686 19.5619C218.92 19.5619 219.133 19.5284 219.325 19.4614C219.522 19.3944 219.689 19.298 219.829 19.1724C219.968 19.0425 220.07 18.8875 220.136 18.7074H223.231C223.125 19.3776 222.873 19.9599 222.476 20.4542C222.079 20.9443 221.552 21.3256 220.897 21.5978C220.246 21.8659 219.485 22 218.613 22Z" fill="white"/>
<path d="M224.615 21.8241V12.1724H227.907V14.0072H228.005C228.177 13.3285 228.45 12.8321 228.822 12.518C229.199 12.2038 229.639 12.0467 230.143 12.0467C230.29 12.0467 230.435 12.0592 230.579 12.0844C230.726 12.1053 230.867 12.1367 231.003 12.1786V15.1382C230.835 15.0796 230.628 15.0356 230.382 15.0063C230.137 14.977 229.926 14.9623 229.75 14.9623C229.418 14.9623 229.119 15.0398 228.853 15.1948C228.591 15.3456 228.384 15.5592 228.233 15.8357C228.081 16.108 228.005 16.4285 228.005 16.7971V21.8241H224.615Z" fill="white"/>
<path d="M234.304 21.9749C233.702 21.9749 233.17 21.8743 232.707 21.6733C232.248 21.468 231.888 21.158 231.626 20.7433C231.364 20.3285 231.233 19.8007 231.233 19.1598C231.233 18.632 231.321 18.1816 231.497 17.8088C231.673 17.4318 231.919 17.1239 232.234 16.8851C232.549 16.6463 232.916 16.4641 233.333 16.3384C233.755 16.2127 234.21 16.1311 234.697 16.0934C235.225 16.0515 235.649 16.0012 235.968 15.9425C236.292 15.8797 236.525 15.7938 236.669 15.6849C236.812 15.5718 236.884 15.4231 236.884 15.2388V15.2136C236.884 14.9623 236.789 14.7696 236.601 14.6355C236.413 14.5015 236.171 14.4345 235.876 14.4345C235.553 14.4345 235.289 14.5078 235.084 14.6544C234.883 14.7968 234.763 15.0168 234.722 15.3142H231.601C231.642 14.7277 231.825 14.1873 232.148 13.693C232.476 13.1945 232.953 12.7965 233.579 12.4991C234.206 12.1975 234.988 12.0467 235.925 12.0467C236.601 12.0467 237.207 12.1284 237.743 12.2917C238.28 12.4509 238.736 12.675 239.113 12.9641C239.49 13.249 239.777 13.5841 239.973 13.9695C240.174 14.3507 240.274 14.7654 240.274 15.2136V21.8241H237.105V20.4668H237.031C236.843 20.8271 236.613 21.1182 236.343 21.3402C236.077 21.5622 235.772 21.7235 235.428 21.8241C235.088 21.9246 234.713 21.9749 234.304 21.9749ZM235.409 19.7882C235.667 19.7882 235.909 19.7337 236.134 19.6248C236.364 19.5159 236.55 19.3588 236.693 19.1535C236.836 18.9482 236.908 18.699 236.908 18.4057V17.6014C236.818 17.6391 236.722 17.6747 236.619 17.7083C236.521 17.7418 236.415 17.7732 236.3 17.8025C236.19 17.8318 236.071 17.8591 235.944 17.8842C235.821 17.9093 235.692 17.9324 235.557 17.9533C235.295 17.9952 235.08 18.0643 234.912 18.1607C234.748 18.2528 234.625 18.368 234.543 18.5063C234.466 18.6403 234.427 18.7911 234.427 18.9587C234.427 19.2268 234.519 19.4321 234.703 19.5745C234.887 19.7169 235.123 19.7882 235.409 19.7882Z" fill="white"/>
<path d="M247.52 12.1724V14.6858H241.304V12.1724H247.52ZM242.508 9.85996H245.899V18.7199C245.899 18.854 245.921 18.9671 245.966 19.0592C246.011 19.1472 246.081 19.2142 246.175 19.2603C246.269 19.3022 246.39 19.3232 246.537 19.3232C246.64 19.3232 246.758 19.3106 246.894 19.2855C247.033 19.2603 247.135 19.2394 247.201 19.2226L247.692 21.6607C247.541 21.7068 247.324 21.7633 247.041 21.8303C246.763 21.8974 246.431 21.9414 246.046 21.9623C245.268 22.0042 244.615 21.9225 244.087 21.7172C243.558 21.5078 243.161 21.1789 242.895 20.7307C242.629 20.2825 242.5 19.7211 242.508 19.0467V9.85996Z" fill="white"/>
<path d="M253.347 22C252.324 22 251.447 21.7926 250.719 21.3779C249.99 20.959 249.431 20.3767 249.042 19.6311C248.653 18.8812 248.458 18.012 248.458 17.0233C248.458 16.0347 248.653 15.1676 249.042 14.4219C249.431 13.6721 249.99 13.0898 250.719 12.675C251.447 12.2561 252.324 12.0467 253.347 12.0467C254.371 12.0467 255.247 12.2561 255.976 12.675C256.705 13.0898 257.264 13.6721 257.653 14.4219C258.042 15.1676 258.236 16.0347 258.236 17.0233C258.236 18.012 258.042 18.8812 257.653 19.6311C257.264 20.3767 256.705 20.959 255.976 21.3779C255.247 21.7926 254.371 22 253.347 22ZM253.372 19.4363C253.659 19.4363 253.906 19.3378 254.115 19.1409C254.324 18.944 254.486 18.6634 254.6 18.2989C254.715 17.9345 254.772 17.5009 254.772 16.9982C254.772 16.4913 254.715 16.0577 254.6 15.6975C254.486 15.333 254.324 15.0524 254.115 14.8555C253.906 14.6586 253.659 14.5601 253.372 14.5601C253.069 14.5601 252.809 14.6586 252.592 14.8555C252.375 15.0524 252.209 15.333 252.094 15.6975C251.98 16.0577 251.922 16.4913 251.922 16.9982C251.922 17.5009 251.98 17.9345 252.094 18.2989C252.209 18.6634 252.375 18.944 252.592 19.1409C252.809 19.3378 253.069 19.4363 253.372 19.4363Z" fill="white"/>
<path d="M259.612 21.8241V12.1724H262.904V14.0072H263.003C263.175 13.3285 263.447 12.8321 263.82 12.518C264.196 12.2038 264.636 12.0467 265.14 12.0467C265.288 12.0467 265.433 12.0592 265.576 12.0844C265.724 12.1053 265.865 12.1367 266 12.1786V15.1382C265.832 15.0796 265.625 15.0356 265.38 15.0063C265.134 14.977 264.923 14.9623 264.747 14.9623C264.415 14.9623 264.116 15.0398 263.85 15.1948C263.588 15.3456 263.381 15.5592 263.23 15.8357C263.078 16.108 263.003 16.4285 263.003 16.7971V21.8241H259.612Z" fill="white"/>
</svg>
